<svg width="215" height="40" viewBox="0 0 215 40" fill="none" xmlns="http://www.w3.org/2000/svg">
<g clip-path="url(#clip0_8_7)">
<path d="M11.7997 39L0.978699 1.18182H9.71308L15.973 27.4588H16.2869L23.1932 1.18182H30.6719L37.5597 27.5142H37.892L44.152 1.18182H52.8864L42.0653 39H34.2727L27.071 14.2741H26.7756L19.5923 39H11.7997ZM66.8974 39.554C63.9798 39.554 61.4684 38.9631 59.3633 37.7812C57.2705 36.5871 55.6578 34.9006 54.5252 32.7216C53.3926 30.5303 52.8263 27.9389 52.8263 24.9474C52.8263 22.0298 53.3926 19.4692 54.5252 17.2656C55.6578 15.062 57.252 13.3447 59.3079 12.1136C61.3761 10.8826 63.8013 10.267 66.5835 10.267C68.4547 10.267 70.1966 10.5687 71.8093 11.1719C73.4343 11.7628 74.85 12.6553 76.0565 13.8494C77.2752 15.0436 78.2231 16.5455 78.9002 18.3551C79.5773 20.1525 79.9158 22.2576 79.9158 24.6705V26.831H55.9656V21.956H72.511C72.511 20.8234 72.2648 19.8201 71.7724 18.946C71.2799 18.072 70.5967 17.3887 69.7227 16.8963C68.8609 16.3916 67.8576 16.1392 66.7127 16.1392C65.5186 16.1392 64.4599 16.4162 63.5366 16.9702C62.6256 17.5118 61.9116 18.2443 61.3945 19.1676C60.8775 20.0786 60.6128 21.0942 60.6005 22.2145V26.8494C60.6005 28.2528 60.859 29.4654 61.3761 30.4872C61.9054 31.509 62.6502 32.2969 63.6104 32.8509C64.5707 33.4048 65.7094 33.6818 67.0266 33.6818C67.9007 33.6818 68.7009 33.5587 69.4272 33.3125C70.1535 33.0663 70.7752 32.697 71.2923 32.2045C71.8093 31.7121 72.2032 31.1089 72.4741 30.3949L79.7496 30.875C79.3803 32.6231 78.6232 34.1496 77.4783 35.4545C76.3458 36.7472 74.8808 37.7566 73.0835 38.483C71.2984 39.197 69.2364 39.554 66.8974 39.554Z" fill="black"/>
<path d="M118.565 14.4219H110.477C110.329 13.3755 110.028 12.446 109.572 11.6335C109.117 10.8087 108.532 10.107 107.818 9.5284C107.104 8.9498 106.279 8.50662 105.343 8.19885C104.42 7.89109 103.417 7.73721 102.333 7.73721C100.376 7.73721 98.671 8.22347 97.2184 9.19601C95.7657 10.1562 94.6393 11.5597 93.8391 13.4062C93.0389 15.2405 92.6388 17.4687 92.6388 20.0909C92.6388 22.7869 93.0389 25.0521 93.8391 26.8864C94.6516 28.7206 95.7842 30.1056 97.2369 31.0412C98.6895 31.9768 100.37 32.4446 102.278 32.4446C103.349 32.4446 104.34 32.303 105.251 32.0199C106.174 31.7367 106.993 31.3243 107.707 30.7827C108.421 30.2287 109.012 29.5578 109.48 28.7699C109.96 27.982 110.292 27.0833 110.477 26.0739L118.565 26.1108C118.356 27.8466 117.833 29.5208 116.995 31.1335C116.171 32.7339 115.056 34.1681 113.653 35.4361C112.262 36.6918 110.6 37.6889 108.667 38.4276C106.747 39.1539 104.574 39.517 102.149 39.517C98.7757 39.517 95.7596 38.7538 93.1005 37.2273C90.4537 35.7008 88.3609 33.491 86.8221 30.598C85.2956 27.705 84.5323 24.2027 84.5323 20.0909C84.5323 15.9669 85.3079 12.4583 86.859 9.56533C88.4102 6.67234 90.5153 4.46874 93.1744 2.95454C95.8335 1.42802 98.8249 0.664764 102.149 0.664764C104.34 0.664764 106.371 0.97253 108.243 1.58806C110.126 2.20359 111.794 3.10226 113.247 4.28408C114.699 5.45359 115.881 6.88777 116.792 8.58664C117.716 10.2855 118.306 12.2306 118.565 14.4219ZM136.966 39.554C134.098 39.554 131.617 38.9446 129.525 37.7259C127.444 36.4948 125.837 34.7836 124.705 32.5923C123.572 30.3887 123.006 27.8343 123.006 24.929C123.006 21.9991 123.572 19.4384 124.705 17.2472C125.837 15.0436 127.444 13.3324 129.525 12.1136C131.617 10.8826 134.098 10.267 136.966 10.267C139.835 10.267 142.309 10.8826 144.39 12.1136C146.482 13.3324 148.095 15.0436 149.228 17.2472C150.36 19.4384 150.926 21.9991 150.926 24.929C150.926 27.8343 150.36 30.3887 149.228 32.5923C148.095 34.7836 146.482 36.4948 144.39 37.7259C142.309 38.9446 139.835 39.554 136.966 39.554ZM137.003 33.4602C138.308 33.4602 139.398 33.0909 140.272 32.3523C141.146 31.6013 141.804 30.5795 142.248 29.2869C142.703 27.9943 142.931 26.5232 142.931 24.8736C142.931 23.224 142.703 21.7528 142.248 20.4602C141.804 19.1676 141.146 18.1458 140.272 17.3949C139.398 16.6439 138.308 16.2685 137.003 16.2685C135.686 16.2685 134.578 16.6439 133.679 17.3949C132.793 18.1458 132.122 19.1676 131.667 20.4602C131.223 21.7528 131.002 23.224 131.002 24.8736C131.002 26.5232 131.223 27.9943 131.667 29.2869C132.122 30.5795 132.793 31.6013 133.679 32.3523C134.578 33.0909 135.686 33.4602 137.003 33.4602ZM168.857 39.554C165.989 39.554 163.508 38.9446 161.415 37.7259C159.335 36.4948 157.728 34.7836 156.596 32.5923C155.463 30.3887 154.897 27.8343 154.897 24.929C154.897 21.9991 155.463 19.4384 156.596 17.2472C157.728 15.0436 159.335 13.3324 161.415 12.1136C163.508 10.8826 165.989 10.267 168.857 10.267C171.725 10.267 174.2 10.8826 176.28 12.1136C178.373 13.3324 179.986 15.0436 181.118 17.2472C182.251 19.4384 182.817 21.9991 182.817 24.929C182.817 27.8343 182.251 30.3887 181.118 32.5923C179.986 34.7836 178.373 36.4948 176.28 37.7259C174.2 38.9446 171.725 39.554 168.857 39.554ZM168.894 33.4602C170.199 33.4602 171.288 33.0909 172.162 32.3523C173.036 31.6013 173.695 30.5795 174.138 29.2869C174.594 27.9943 174.821 26.5232 174.821 24.8736C174.821 23.224 174.594 21.7528 174.138 20.4602C173.695 19.1676 173.036 18.1458 172.162 17.3949C171.288 16.6439 170.199 16.2685 168.894 16.2685C167.577 16.2685 166.469 16.6439 165.57 17.3949C164.684 18.1458 164.013 19.1676 163.557 20.4602C163.114 21.7528 162.892 23.224 162.892 24.8736C162.892 26.5232 163.114 27.9943 163.557 29.2869C164.013 30.5795 164.684 31.6013 165.57 32.3523C166.469 33.0909 167.577 33.4602 168.894 33.4602ZM195.06 30.8381L195.078 21.402H196.223L205.309 10.6364H214.338L202.132 24.892H200.267L195.06 30.8381ZM187.932 39V1.18181H195.799V39H187.932ZM205.659 39L197.313 26.6463L202.557 21.0881L214.874 39H205.659Z" fill="#00DE5A"/>
</g>
<defs>
<clipPath id="clip0_8_7">
<rect width="215" height="40" fill="white"/>
</clipPath>
</defs>
</svg>
